<?xml version="1.0" standalone="no"?>
<!DOCTYPE svg PUBLIC "-//W3C//DTD SVG 20010904//EN"
 "http://www.w3.org/TR/2001/REC-SVG-20010904/DTD/svg10.dtd">
<svg version="1.0" xmlns="http://www.w3.org/2000/svg"
 width="282.000000pt" height="260.000000pt" viewBox="0 0 282.000000 260.000000"
 preserveAspectRatio="xMidYMid meet">

<g transform="translate(0.000000,260.000000) scale(0.100000,-0.100000)"
fill="#000" stroke="none">
<path d="M0 1300 l0 -1300 1410 0 1410 0 0 1300 0 1300 -1410 0 -1410 0 0
-1300z m943 1050 c19 -16 55 -34 82 -40 27 -6 55 -16 62 -22 9 -7 51 -3 145
16 73 14 156 28 183 31 l50 5 -45 -13 c-45 -14 -45 -14 -15 -20 75 -16 145 -9
324 32 101 23 186 40 188 37 3 -3 -71 -29 -163 -59 l-169 -55 77 -36 c42 -20
81 -36 86 -36 5 0 37 11 71 25 35 15 68 24 74 22 6 -2 -15 -14 -46 -26 -67
-27 -75 -36 -46 -51 16 -9 29 -8 60 4 54 22 61 20 20 -5 l-34 -20 24 -17 c13
-8 28 -22 32 -29 13 -22 31 -14 47 20 21 45 88 77 162 77 68 0 147 -38 198
-97 27 -30 31 -41 28 -81 -3 -46 -4 -47 -33 -45 -27 2 -33 -3 -53 -45 -12 -26
-22 -55 -22 -65 0 -10 -10 -22 -22 -27 -13 -5 -34 -18 -47 -28 l-23 -19 55
-31 c30 -17 58 -36 62 -42 15 -24 47 -7 96 53 47 56 94 138 100 177 6 34 -23
100 -54 124 -20 17 -27 26 -17 27 31 3 56 -3 71 -17 14 -13 18 -12 27 13 6 15
14 45 18 65 6 38 34 62 34 30 1 -16 1 -16 11 1 27 45 57 -1 46 -71 l-6 -37 15
28 c14 27 34 37 34 17 0 -31 -43 -159 -64 -189 -14 -20 -38 -76 -55 -124 -31
-92 -100 -214 -145 -257 l-27 -24 -102 33 c-56 18 -124 44 -150 57 -27 13 -55
24 -63 24 -8 0 -14 4 -14 8 0 5 -11 15 -25 22 -22 12 -28 10 -60 -14 -19 -15
-61 -39 -93 -52 -31 -14 -75 -39 -97 -55 -22 -16 -75 -52 -117 -80 -43 -29
-78 -55 -78 -59 0 -4 9 -10 19 -13 14 -3 45 16 106 69 117 100 128 102 25 5
-55 -53 -81 -84 -75 -90 6 -5 44 -27 85 -49 89 -46 234 -128 271 -153 25 -16
27 -16 44 -1 16 16 17 16 6 -5 -6 -12 -11 -38 -11 -57 0 -36 -82 -164 -317
-500 l-84 -119 22 -23 c12 -13 26 -24 30 -24 4 0 44 54 89 121 174 259 466
647 477 635 5 -5 -100 -164 -288 -436 -75 -107 -158 -229 -187 -271 l-51 -77
39 -10 39 -10 57 97 c93 156 355 544 363 536 5 -5 -87 -165 -199 -345 -150
-241 -220 -363 -304 -527 -69 -134 -96 -175 -96 -144 0 12 120 273 133 289 15
19 7 21 -50 14 l-52 -7 -76 -120 c-111 -174 -119 -185 -132 -185 -7 0 -13 2
-13 5 0 2 41 75 91 160 50 86 90 158 88 159 -2 2 -18 11 -35 19 l-31 16 -106
-142 c-129 -172 -173 -224 -182 -215 -4 4 42 74 102 155 60 81 119 163 132
180 l22 33 -26 10 c-14 5 -32 10 -40 10 -7 0 -67 -64 -133 -142 -173 -205
-216 -252 -231 -247 -8 3 49 82 148 206 89 110 161 203 161 206 0 3 -6 7 -14
10 -10 4 -62 -53 -159 -171 -196 -239 -211 -256 -226 -251 -8 3 43 75 139 194
84 105 163 201 176 216 13 14 24 35 24 46 0 12 4 24 9 28 10 6 63 97 59 100
-2 1 -51 -50 -111 -114 -368 -397 -477 -503 -477 -465 0 24 315 367 682 740
81 84 148 156 148 162 0 6 23 41 50 77 53 71 57 78 37 73 -18 -4 -361 -358
-618 -638 -307 -334 -396 -426 -404 -418 -4 4 37 56 92 115 54 59 175 194 268
298 93 105 270 292 392 416 123 124 223 229 223 233 0 4 -11 6 -25 4 -29 -4
-866 -813 -1002 -969 -47 -55 -93 -99 -100 -99 -18 0 -15 5 65 110 73 96 628
651 835 835 75 66 136 123 136 127 1 3 -21 9 -49 13 l-50 7 -252 -239 c-139
-131 -332 -310 -428 -397 -96 -86 -241 -225 -321 -308 -101 -104 -151 -149
-163 -147 -15 3 -8 17 39 79 99 128 184 218 350 369 88 80 239 218 335 307 96
89 222 202 280 250 58 48 106 90 108 94 1 4 -16 12 -39 18 -40 10 -45 9 -78
-20 -178 -154 -847 -762 -1003 -910 -201 -192 -227 -210 -258 -173 -21 25 -29
84 -20 148 6 42 6 65 -2 74 -8 10 -8 17 0 25 15 15 16 92 2 83 -6 -3 -10 1
-10 9 0 9 4 16 9 16 5 0 11 23 15 50 7 55 26 71 57 52 10 -7 23 -12 28 -12 16
0 293 219 341 270 28 29 74 62 120 85 108 54 156 91 201 158 22 32 39 60 37
62 -2 2 -136 -94 -299 -213 -336 -247 -496 -358 -504 -350 -3 3 36 34 87 69
178 121 753 558 798 605 25 27 38 43 30 38 -86 -60 -386 -283 -505 -374 -204
-157 -392 -290 -410 -290 -20 0 7 27 82 80 48 35 185 139 304 233 119 93 302
229 405 301 145 101 189 137 195 159 4 15 4 27 -1 27 -4 0 -174 -112 -377
-249 -412 -278 -601 -397 -611 -386 -4 4 -1 10 5 12 28 10 966 644 997 674 60
57 -25 6 -326 -193 -451 -299 -678 -440 -678 -419 0 5 72 56 160 113 89 56
304 198 479 313 175 116 347 228 382 250 35 22 89 56 121 76 31 20 80 57 110
83 63 56 114 86 -437 -254 -526 -325 -806 -492 -814 -485 -7 7 -5 9 129 89 58
35 314 193 570 353 256 159 511 317 567 351 55 35 109 75 119 90 24 38 108
136 173 204 30 32 52 60 49 63 -3 4 -82 -34 -175 -83 -92 -49 -379 -199 -637
-332 -258 -133 -528 -274 -600 -314 -178 -99 -196 -108 -196 -97 0 16 475 273
1095 592 439 225 500 258 503 268 2 6 -7 16 -21 22 -20 9 -38 5 -113 -26 -236
-98 -422 -172 -578 -230 -235 -86 -552 -211 -725 -284 -152 -64 -161 -67 -161
-50 0 21 348 170 780 334 306 116 743 286 750 292 3 3 -7 15 -23 28 -25 23
-30 23 -70 11 -77 -24 -248 -87 -632 -234 -463 -177 -794 -292 -801 -280 -3 5
-4 11 -3 13 2 1 112 43 244 93 132 50 381 145 553 211 173 67 371 140 440 163
103 34 122 43 102 49 -14 4 -39 7 -55 8 -38 1 -316 -84 -326 -100 -4 -6 -11
-9 -17 -5 -6 3 -142 -35 -304 -84 -270 -84 -525 -157 -606 -175 -29 -6 -33 -4
-30 11 2 13 35 27 137 56 258 75 785 248 800 262 26 27 1 33 -78 22 -47 -7
-56 -6 -68 9 -15 21 21 28 -446 -82 -175 -41 -326 -72 -335 -70 -14 3 -15 5
-2 10 20 8 639 162 713 177 45 9 57 15 57 30 0 16 9 19 58 22 l57 3 -42 13
c-38 11 -53 29 -38 44 3 3 29 -1 57 -8 28 -8 53 -12 55 -11 1 2 -11 19 -27 38
-16 19 -29 37 -30 42 -1 16 31 5 63 -23z m392 -579 c-6 -5 -95 -58 -200 -117
-104 -59 -361 -205 -570 -324 -478 -272 -555 -314 -555 -301 0 19 633 390 985
578 284 152 370 193 340 164z m-475 -46 c0 -3 -51 -30 -112 -61 -62 -31 -252
-128 -421 -216 -169 -88 -311 -158 -314 -154 -8 8 -16 2 107 73 163 94 408
219 574 294 149 67 166 74 166 64z m1395 -866 c-160 -273 -277 -485 -362 -659
-74 -149 -100 -193 -112 -185 -12 7 141 347 228 506 38 69 104 182 147 250 80
128 225 331 232 325 2 -2 -58 -109 -133 -237z m166 159 c-21 -55 -157 -351
-252 -548 -56 -118 -125 -269 -154 -335 -35 -82 -57 -121 -69 -123 -22 -5 -21
-2 47 173 68 176 412 855 433 855 2 0 0 -10 -5 -22z m-83 -84 c-114 -235 -471
-924 -478 -924 -5 0 16 53 46 118 31 64 62 131 70 149 14 32 226 434 329 625
64 119 85 139 33 32z m-226 -146 c-27 -51 -112 -210 -189 -353 -77 -143 -159
-297 -183 -343 -24 -45 -47 -82 -52 -82 -4 0 -8 2 -8 5 0 24 301 588 431 807
54 92 55 67 1 -34z m190 -210 c-74 -178 -182 -468 -197 -531 -7 -28 -22 -43
-32 -33 -7 7 44 170 109 346 50 135 186 425 195 416 3 -3 -31 -92 -75 -198z
m-1153 165 c-8 -10 -88 -97 -179 -193 -91 -96 -240 -255 -329 -353 -157 -171
-185 -197 -198 -184 -6 6 186 222 406 456 138 148 357 347 300 274z m1242
-186 c-40 -159 -151 -530 -162 -541 -29 -31 14 148 105 435 64 204 75 234 81
227 3 -3 -8 -57 -24 -121z m-94 -114 c-20 -54 -61 -168 -92 -253 -31 -85 -58
-161 -60 -168 -3 -7 -9 -11 -14 -8 -14 9 13 99 70 238 27 68 67 165 87 217 47
122 54 102 9 -26z m169 -5 c-42 -197 -94 -419 -100 -425 -38 -39 -2 144 98
491 17 62 19 14 2 -66z m0 -180 c-14 -73 -28 -159 -32 -191 -4 -36 -11 -56
-18 -54 -20 7 -6 111 42 312 35 145 40 102 8 -67z m55 -4 c-16 -71 -33 -153
-37 -182 -8 -60 -24 -80 -24 -29 0 49 15 125 52 265 42 158 49 116 9 -54z
m105 49 c-3 -32 -9 -111 -12 -175 -4 -65 -11 -118 -16 -118 -12 0 -8 182 5
278 12 86 33 99 23 15z m-71 -148 c-18 -124 -34 -180 -35 -115 0 27 33 268 42
299 0 3 3 -10 5 -29 3 -19 -3 -89 -12 -155z"/>
<path d="M1728 768 c-101 -98 -157 -184 -140 -215 10 -17 0 -29 150 180 50 70
90 127 89 127 -1 0 -46 -42 -99 -92z"/>
<path d="M895 798 c-11 -6 -43 -30 -71 -54 -29 -24 -62 -48 -75 -53 -13 -6
-69 -49 -124 -96 -55 -48 -166 -140 -247 -206 -146 -118 -194 -166 -218 -217
-7 -15 -21 -43 -31 -63 -11 -20 -19 -42 -19 -49 0 -7 86 70 191 171 104 101
283 269 397 372 114 104 211 193 217 198 12 12 5 11 -20 -3z"/>
<path d="M1445 675 c-31 -36 -50 -65 -43 -65 8 0 25 15 38 33 13 17 35 47 48
65 40 53 18 36 -43 -33z"/>
<path d="M230 514 c-58 -46 -62 -51 -22 -28 29 17 83 65 71 63 -2 0 -24 -16
-49 -35z"/>
<path d="M421 481 c-44 -33 -85 -70 -92 -83 -10 -18 98 63 171 129 35 32 -5 8
-79 -46z"/>
</g>
</svg>
